<?xml version="1.0" encoding="UTF-8"?>
<!DOCTYPE svg PUBLIC "-//W3C//DTD SVG 1.1//EN" "http://www.w3.org/Graphics/SVG/1.1/DTD/svg11.dtd">
<!-- Creator: CorelDRAW -->
<svg xmlns="http://www.w3.org/2000/svg" xml:space="preserve" width="2.43048in" height="1.89763in" version="1.1" style="shape-rendering:geometricPrecision; text-rendering:geometricPrecision; image-rendering:optimizeQuality; fill-rule:evenodd; clip-rule:evenodd"
viewBox="0 0 2419.31 1888.9"
 xmlns:xlink="http://www.w3.org/1999/xlink"
 xmlns:xodm="http://www.corel.com/coreldraw/odm/2003">
 <defs>
  <style type="text/css">
   <![CDATA[
    .str1 {stroke:#282829;stroke-width:54.16;stroke-linecap:round;stroke-linejoin:round;stroke-miterlimit:22.9256;stroke-opacity:0.231373}
    .str0 {stroke:#A13A4B;stroke-width:138.25;stroke-linecap:round;stroke-linejoin:round;stroke-miterlimit:22.9256}
    .fil0 {fill:none}
    .fil2 {fill:none;fill-rule:nonzero}
    .fil1 {fill:white}
    .fil3 {fill:#282829;fill-rule:nonzero;fill-opacity:0.231373}
    .fil4 {fill:#A13A4B;fill-rule:nonzero}
   ]]>
  </style>
 </defs>
 <g id="Layer_x0020_1">
  <metadata id="CorelCorpID_0Corel-Layer"/>
  <g id="_2365700408192">
   <g>
    <path class="fil0 str0" d="M141.33 795.17c238.41,-238.41 713.25,-982.94 1049.5,-589.62 0,0 108.64,-141.67 263.34,-136.37 191.62,6.57 669.11,571.29 823.81,725.99 96.28,96.28 96.28,253.81 0,350.09l-545.21 545.21c-169.59,146.28 -386.67,198.3 -541.93,-4.17 -343.59,401.86 -765.03,-256.57 -1049.5,-541.04 -96.28,-96.28 -96.28,-253.81 0,-350.09z"/>
    <path id="_1" class="fil1" d="M141.33 795.17c238.41,-238.41 713.25,-982.94 1049.5,-589.62 0,0 108.64,-141.67 263.34,-136.37 191.62,6.57 669.11,571.29 823.81,725.99 96.28,96.28 96.28,253.81 0,350.09l-545.21 545.21c-169.59,146.28 -386.67,198.3 -541.93,-4.17 -343.59,401.86 -765.03,-256.57 -1049.5,-541.04 -96.28,-96.28 -96.28,-253.81 0,-350.09z"/>
   </g>
   <g>
    <g>
     <path class="fil2 str1" d="M715.15 1502.26l268.88 -1115.62 345.04 18.7c73.35,3.98 124.29,9.15 153.38,15.3 47.8,9.79 88.15,25.88 121.15,48.76 32.97,22.85 57.8,52.25 75.02,88.54 17.02,36.1 25.54,76.01 25.54,119.1 0,58.47 -14.94,108.6 -45.22,150.84 -30.49,42.54 -77.72,74.37 -141.93,94.87 50.6,16.82 90.14,45.13 118.54,84.99 28.2,39.89 42.4,84.85 42.34,134.54 -0.08,66.1 -17.12,129.05 -51.58,188.69 -34.78,60.44 -82.78,103.96 -144.4,130.83 -62.16,26.82 -147.69,40.47 -257.05,40.47l-509.71 0zm379.36 -675.37l161.65 5.33c71.86,2.37 123.17,-1.23 154.44,-11 31.37,-9.72 54.57,-26.44 70.36,-50.32 15.73,-23.55 23.58,-49.05 23.84,-76.49 0.26,-26.88 -6.64,-49.33 -20.92,-67.15 -14.28,-17.82 -34.61,-30.27 -61.26,-37.12 -14.96,-3.63 -51.03,-6.74 -108.43,-9.35l-161.87 -7.36 -57.81 253.46zm-111.52 488.33l210.64 1.91c87.26,0.8 145.29,-4.75 174.79,-16.6 29.62,-11.79 53.03,-31.2 70.98,-58.69 17.63,-27.11 26.71,-56.06 27.05,-86.35 0.41,-36.64 -11.71,-67.24 -36.38,-91.66 -24.44,-24.42 -65.87,-37.19 -124.54,-38.56l-254.95 -6 -67.6 295.95z"/>
    </g>
    <path id="_1_5" class="fil3" d="M715.15 1502.26l268.88 -1115.62 345.04 18.7c73.35,3.98 124.29,9.15 153.38,15.3 47.8,9.79 88.15,25.88 121.15,48.76 32.97,22.85 57.8,52.25 75.02,88.54 17.02,36.1 25.54,76.01 25.54,119.1 0,58.47 -14.94,108.6 -45.22,150.84 -30.49,42.54 -77.72,74.37 -141.93,94.87 50.6,16.82 90.14,45.13 118.54,84.99 28.2,39.89 42.4,84.85 42.34,134.54 -0.08,66.1 -17.12,129.05 -51.58,188.69 -34.78,60.44 -82.78,103.96 -144.4,130.83 -62.16,26.82 -147.69,40.47 -257.05,40.47l-509.71 0zm379.36 -675.37l161.65 5.33c71.86,2.37 123.17,-1.23 154.44,-11 31.37,-9.72 54.57,-26.44 70.36,-50.32 15.73,-23.55 23.58,-49.05 23.84,-76.49 0.26,-26.88 -6.64,-49.33 -20.92,-67.15 -14.28,-17.82 -34.61,-30.27 -61.26,-37.12 -14.96,-3.63 -51.03,-6.74 -108.43,-9.35l-161.87 -7.36 -57.81 253.46zm-111.52 488.33l210.64 1.91c87.26,0.8 145.29,-4.75 174.79,-16.6 29.62,-11.79 53.03,-31.2 70.98,-58.69 17.63,-27.11 26.71,-56.06 27.05,-86.35 0.41,-36.64 -11.71,-67.24 -36.38,-91.66 -24.44,-24.42 -65.87,-37.19 -124.54,-38.56l-254.95 -6 -67.6 295.95z"/>
    <path class="fil4" d="M715.15 1502.26l268.88 -1115.62 345.04 18.7c73.35,3.98 124.29,9.15 153.38,15.3 47.8,9.79 88.15,25.88 121.15,48.76 32.97,22.85 57.8,52.25 75.02,88.54 17.02,36.1 25.54,76.01 25.54,119.1 0,58.47 -14.94,108.6 -45.22,150.84 -30.49,42.54 -77.72,74.37 -141.93,94.87 50.6,16.82 90.14,45.13 118.54,84.99 28.2,39.89 42.4,84.85 42.34,134.54 -0.08,66.1 -17.12,129.05 -51.58,188.69 -34.78,60.44 -82.78,103.96 -144.4,130.83 -62.16,26.82 -147.69,40.47 -257.05,40.47l-509.71 0zm379.36 -675.37l161.65 5.33c71.86,2.37 123.17,-1.23 154.44,-11 31.37,-9.72 54.57,-26.44 70.36,-50.32 15.73,-23.55 23.58,-49.05 23.84,-76.49 0.26,-26.88 -6.64,-49.33 -20.92,-67.15 -14.28,-17.82 -34.61,-30.27 -61.26,-37.12 -14.96,-3.63 -51.03,-6.74 -108.43,-9.35l-161.87 -7.36 -57.81 253.46zm-111.52 488.33l210.64 1.91c87.26,0.8 145.29,-4.75 174.79,-16.6 29.62,-11.79 53.03,-31.2 70.98,-58.69 17.63,-27.11 26.71,-56.06 27.05,-86.35 0.41,-36.64 -11.71,-67.24 -36.38,-91.66 -24.44,-24.42 -65.87,-37.19 -124.54,-38.56l-254.95 -6 -67.6 295.95z"/>
   </g>
  </g>
 </g>
</svg>
