<svg width="56" height="30" viewBox="0 0 56 56" fill="none" xmlns="http://www.w3.org/2000/svg">
<path d="M1.77734 38.0668V47.9001C1.77734 51.5207 4.71237 54.4557 8.3329 54.4557H11.6107C15.2312 54.4557 18.1662 51.5207 18.1662 47.9001V38.0668C18.1662 34.4463 15.2312 31.5112 11.6107 31.5112H8.3329C4.71237 31.5112 1.77734 34.4463 1.77734 38.0668ZM1.77734 38.0668V28.2335C1.77734 21.2789 4.54003 14.6092 9.45765 9.69154C14.3753 4.77392 21.045 2.01123 27.9996 2.01123C34.9541 2.01123 41.6239 4.77392 46.5415 9.69154C51.4591 14.6092 54.2218 21.2789 54.2218 28.2335L54.2211 38.0668M54.2211 38.0668C54.2211 34.4463 51.2861 31.5112 47.6656 31.5112H44.3878C40.7673 31.5112 37.8323 34.4463 37.8323 38.0668V47.9001C37.8323 51.5207 40.7673 54.4557 44.3878 54.4557H47.6656C51.2861 54.4557 54.2211 51.5207 54.2211 47.9001V38.0668Z" stroke="#FFFCFC" stroke-width="2.80952" stroke-linecap="round" stroke-linejoin="round"/>
</svg>
