<svg width="24" height="34" viewBox="0 0 24 34" fill="none" xmlns="http://www.w3.org/2000/svg">
<path d="M6.74726 6.49841H17.2457M6.74726 6.49841C3.8482 6.49841 1.49805 8.84857 1.49805 11.7476V22.2461C1.49805 25.1451 3.8482 27.4953 6.74726 27.4953M6.74726 6.49841L6.74731 1.24927H17.2457L17.2457 6.49841M17.2457 6.49841C20.1448 6.49841 22.4949 8.84857 22.4949 11.7476V22.2461C22.4949 25.1451 20.1448 27.4953 17.2457 27.4953M17.2457 27.4953H6.74726M17.2457 27.4953L17.2457 32.7445H6.74731L6.74726 27.4953M8.99659 13.2473L8.99659 21.496M11.9961 16.9967V21.496M14.9957 15.4969V21.496" stroke="#9F3247" stroke-width="1.49978" stroke-linecap="round" stroke-linejoin="round"/>
</svg>
