<svg width="36" height="30" viewBox="0 0 36 56" fill="none" xmlns="http://www.w3.org/2000/svg">
<path d="M15.2013 2.02836C14.5393 2.02836 14.0026 2.56505 14.0026 3.22709C14.0026 3.88913 14.5393 4.42582 15.2013 4.42582V2.02836ZM21.7569 4.42582C22.4189 4.42582 22.9556 3.88913 22.9556 3.22709C22.9556 2.56505 22.4189 2.02836 21.7569 2.02836V4.42582ZM19.1983 47.5861C19.1983 46.924 18.6616 46.3874 17.9996 46.3874C17.3375 46.3874 16.8008 46.924 16.8008 47.5861H19.1983ZM16.8008 47.6164C16.8008 48.2784 17.3375 48.8151 17.9996 48.8151C18.6616 48.8151 19.1983 48.2784 19.1983 47.6164H16.8008ZM4.88911 3.37671H31.1113V0.979248H4.88911V3.37671ZM31.1113 3.37671C32.2596 3.37671 33.1904 4.30753 33.1904 5.45576H35.5878C35.5878 2.98345 33.5836 0.979248 31.1113 0.979248V3.37671ZM33.1904 5.45576V51.3446H35.5878V5.45576H33.1904ZM33.1904 51.3446C33.1904 52.4929 32.2596 53.4237 31.1113 53.4237V55.8212C33.5836 55.8212 35.5878 53.817 35.5878 51.3446H33.1904ZM31.1113 53.4237H4.88911V55.8212H31.1113V53.4237ZM4.88911 53.4237C3.74088 53.4237 2.81006 52.4929 2.81006 51.3446H0.412598C0.412598 53.817 2.4168 55.8212 4.88911 55.8212V53.4237ZM2.81006 51.3446V5.45576H0.412598V51.3446H2.81006ZM2.81006 5.45576C2.81006 4.30753 3.74088 3.37671 4.88911 3.37671V0.979248C2.4168 0.979248 0.412598 2.98345 0.412598 5.45576H2.81006ZM15.2013 4.42582H21.7569V2.02836H15.2013V4.42582ZM16.8008 47.5861V47.6164H19.1983V47.5861H16.8008ZM2.61579 43.7833H33.3832V41.3859H2.61579V43.7833Z" fill="#FFFCFC"/>
</svg>
