<svg width="20" height="30" viewBox="0 0 20 30" fill="none" xmlns="http://www.w3.org/2000/svg">
<path d="M8.31384 0.851797C7.96387 0.851797 7.68017 1.1355 7.68017 1.48547C7.68017 1.83544 7.96387 2.11915 8.31384 2.11915V0.851797ZM11.7793 2.11915C12.1292 2.11915 12.4129 1.83544 12.4129 1.48547C12.4129 1.1355 12.1292 0.851797 11.7793 0.851797V2.11915ZM10.4263 24.9347C10.4263 24.5847 10.1426 24.301 9.7926 24.301C9.44263 24.301 9.15893 24.5847 9.15893 24.9347H10.4263ZM9.15893 24.9515C9.15893 25.3015 9.44263 25.5852 9.7926 25.5852C10.1426 25.5852 10.4263 25.3015 10.4263 24.9515H9.15893ZM2.86162 1.56459H16.7233V0.297231H2.86162V1.56459ZM16.7233 1.56459C17.3303 1.56459 17.8223 2.05664 17.8223 2.66362H19.0897C19.0897 1.3567 18.0302 0.297231 16.7233 0.297231V1.56459ZM17.8223 2.66362V26.9216H19.0897V2.66362H17.8223ZM17.8223 26.9216C17.8223 27.5285 17.3303 28.0206 16.7233 28.0206V29.288C18.0302 29.288 19.0897 28.2285 19.0897 26.9216H17.8223ZM16.7233 28.0206H2.86162V29.288H16.7233V28.0206ZM2.86162 28.0206C2.25464 28.0206 1.76258 27.5285 1.76258 26.9216H0.495229C0.495229 28.2285 1.5547 29.288 2.86162 29.288V28.0206ZM1.76258 26.9216V2.66362H0.495229V26.9216H1.76258ZM1.76258 2.66362C1.76258 2.05664 2.25464 1.56459 2.86162 1.56459V0.297231C1.5547 0.297231 0.495229 1.3567 0.495229 2.66362H1.76258ZM8.31384 2.11915H11.7793V0.851797H8.31384V2.11915ZM9.15893 24.9347V24.9515H10.4263V24.9347H9.15893ZM1.6604 22.9244H17.9248V21.6571H1.6604V22.9244Z" fill="#9F3247"/>
</svg>
