<?xml version="1.0" encoding="UTF-8"?>
<!DOCTYPE svg PUBLIC "-//W3C//DTD SVG 1.1//EN" "http://www.w3.org/Graphics/SVG/1.1/DTD/svg11.dtd">
<!-- Creator: CorelDRAW -->
<svg xmlns="http://www.w3.org/2000/svg" xml:space="preserve" width="2.65667in" height="2.58776in" version="1.1" style="shape-rendering:geometricPrecision; text-rendering:geometricPrecision; image-rendering:optimizeQuality; fill-rule:evenodd; clip-rule:evenodd"
viewBox="0 0 2588.48 2521.34"
 xmlns:xlink="http://www.w3.org/1999/xlink"
 xmlns:xodm="http://www.corel.com/coreldraw/odm/2003">
 <defs>
  <style type="text/css">
   <![CDATA[
    .str1 {stroke:#282829;stroke-width:46.94;stroke-linecap:round;stroke-linejoin:round;stroke-miterlimit:22.9256;stroke-opacity:0.231373}
    .str0 {stroke:white;stroke-width:6.77;stroke-miterlimit:22.9256}
    .fil3 {fill:none;fill-rule:nonzero}
    .fil2 {fill:#A13A4B}
    .fil4 {fill:#282829;fill-rule:nonzero;fill-opacity:0.231373}
    .fil5 {fill:white;fill-rule:nonzero}
    .fil1 {fill:url(#id0)}
    .fil0 {fill:url(#id1)}
   ]]>
  </style>
  <linearGradient id="id0" gradientUnits="userSpaceOnUse" x1="933.02" y1="142.55" x2="1414.22" y2="2365.54">
   <stop offset="0" style="stop-opacity:1; stop-color:#9E3146"/>
   <stop offset="0.54902" style="stop-opacity:1; stop-color:#B68686"/>
   <stop offset="1" style="stop-opacity:1; stop-color:#9E3246"/>
  </linearGradient>
  <linearGradient id="id1" gradientUnits="userSpaceOnUse" x1="1020.99" y1="721.97" x2="1412.63" y2="2355.48">
   <stop offset="0" style="stop-opacity:1; stop-color:#9E3146"/>
   <stop offset="0.180392" style="stop-opacity:1; stop-color:#9E3146"/>
   <stop offset="0.439216" style="stop-opacity:1; stop-color:#D4BDBD"/>
   <stop offset="0.65098" style="stop-opacity:1; stop-color:#9E3146"/>
   <stop offset="1" style="stop-opacity:1; stop-color:#9E3146"/>
  </linearGradient>
 </defs>
 <g id="Layer_x0020_1">
  <metadata id="CorelCorpID_0Corel-Layer"/>
  <g id="_2318956393744">
   <ellipse class="fil0" cx="1356.82" cy="1260.67" rx="1231.66" ry="1260.67"/>
   <ellipse class="fil1" cx="1186.96" cy="1248.79" rx="1186.96" ry="1248.79"/>
   <g>
    <image x="283.3" y="285.91" width="1829.01" height="1912.89" xlink:href="bid credits_Images\bid credits_ImgID1.png"/>
   </g>
   <ellipse class="fil2 str0" cx="1197.81" cy="1242.36" rx="894.61" ry="936.55"/>
   <g>
    <g>
     <path class="fil3 str1" d="M759.27 1702.69l233.05 -966.96 299.06 16.21c63.58,3.45 107.73,7.93 132.94,13.26 41.43,8.49 76.4,22.43 105.01,42.26 28.57,19.81 50.1,45.29 65.03,76.74 14.75,31.29 22.14,65.88 22.14,103.23 0,50.68 -12.95,94.13 -39.19,130.74 -26.42,36.88 -67.36,64.46 -123.02,82.23 43.85,14.58 78.13,39.12 102.75,73.67 24.45,34.57 36.75,73.55 36.69,116.61 -0.07,57.29 -14.84,111.85 -44.7,163.55 -30.14,52.39 -71.74,90.1 -125.16,113.39 -53.88,23.25 -128.01,35.08 -222.8,35.08l-441.79 0zm328.81 -585.38l140.11 4.62c62.29,2.06 106.75,-1.06 133.86,-9.53 27.19,-8.43 47.3,-22.92 60.98,-43.61 13.63,-20.41 20.43,-42.51 20.66,-66.3 0.23,-23.29 -5.75,-42.75 -18.13,-58.2 -12.37,-15.45 -30,-26.23 -53.09,-32.18 -12.97,-3.14 -44.23,-5.84 -93.98,-8.11l-140.3 -6.38 -50.11 219.68zm-96.65 423.26l182.57 1.66c75.64,0.69 125.93,-4.12 151.5,-14.38 25.67,-10.22 45.96,-27.04 61.52,-50.87 15.28,-23.5 23.15,-48.59 23.45,-74.84 0.35,-31.76 -10.15,-58.28 -31.54,-79.45 -21.18,-21.16 -57.09,-32.23 -107.94,-33.42l-220.98 -5.21 -58.59 256.51z"/>
    </g>
    <path id="_1" class="fil4" d="M759.27 1702.69l233.05 -966.96 299.06 16.21c63.58,3.45 107.73,7.93 132.94,13.26 41.43,8.49 76.4,22.43 105.01,42.26 28.57,19.81 50.1,45.29 65.03,76.74 14.75,31.29 22.14,65.88 22.14,103.23 0,50.68 -12.95,94.13 -39.19,130.74 -26.42,36.88 -67.36,64.46 -123.02,82.23 43.85,14.58 78.13,39.12 102.75,73.67 24.45,34.57 36.75,73.55 36.69,116.61 -0.07,57.29 -14.84,111.85 -44.7,163.55 -30.14,52.39 -71.74,90.1 -125.16,113.39 -53.88,23.25 -128.01,35.08 -222.8,35.08l-441.79 0zm328.81 -585.38l140.11 4.62c62.29,2.06 106.75,-1.06 133.86,-9.53 27.19,-8.43 47.3,-22.92 60.98,-43.61 13.63,-20.41 20.43,-42.51 20.66,-66.3 0.23,-23.29 -5.75,-42.75 -18.13,-58.2 -12.37,-15.45 -30,-26.23 -53.09,-32.18 -12.97,-3.14 -44.23,-5.84 -93.98,-8.11l-140.3 -6.38 -50.11 219.68zm-96.65 423.26l182.57 1.66c75.64,0.69 125.93,-4.12 151.5,-14.38 25.67,-10.22 45.96,-27.04 61.52,-50.87 15.28,-23.5 23.15,-48.59 23.45,-74.84 0.35,-31.76 -10.15,-58.28 -31.54,-79.45 -21.18,-21.16 -57.09,-32.23 -107.94,-33.42l-220.98 -5.21 -58.59 256.51z"/>
    <path class="fil5" d="M759.27 1702.69l233.05 -966.96 299.06 16.21c63.58,3.45 107.73,7.93 132.94,13.26 41.43,8.49 76.4,22.43 105.01,42.26 28.57,19.81 50.1,45.29 65.03,76.74 14.75,31.29 22.14,65.88 22.14,103.23 0,50.68 -12.95,94.13 -39.19,130.74 -26.42,36.88 -67.36,64.46 -123.02,82.23 43.85,14.58 78.13,39.12 102.75,73.67 24.45,34.57 36.75,73.55 36.69,116.61 -0.07,57.29 -14.84,111.85 -44.7,163.55 -30.14,52.39 -71.74,90.1 -125.16,113.39 -53.88,23.25 -128.01,35.08 -222.8,35.08l-441.79 0zm328.81 -585.38l140.11 4.62c62.29,2.06 106.75,-1.06 133.86,-9.53 27.19,-8.43 47.3,-22.92 60.98,-43.61 13.63,-20.41 20.43,-42.51 20.66,-66.3 0.23,-23.29 -5.75,-42.75 -18.13,-58.2 -12.37,-15.45 -30,-26.23 -53.09,-32.18 -12.97,-3.14 -44.23,-5.84 -93.98,-8.11l-140.3 -6.38 -50.11 219.68zm-96.65 423.26l182.57 1.66c75.64,0.69 125.93,-4.12 151.5,-14.38 25.67,-10.22 45.96,-27.04 61.52,-50.87 15.28,-23.5 23.15,-48.59 23.45,-74.84 0.35,-31.76 -10.15,-58.28 -31.54,-79.45 -21.18,-21.16 -57.09,-32.23 -107.94,-33.42l-220.98 -5.21 -58.59 256.51z"/>
   </g>
  </g>
 </g>
</svg>
