<?xml version="1.0" encoding="UTF-8" standalone="no"?>
<!-- Created with Pixodesk SVG (https://pixodesk.com) -->
<svg xmlns="http://www.w3.org/2000/svg" viewBox="-3.1 366.1000000000001 602.0125000000005 108.9" text-rendering="geometricPrecision" shape-rendering="geometricPrecision">
  <path class="st0" fill="#2dbdef" d="M83.3,377.2L2.9,377.2C0.2,377.2,-2.1,379.5,-2.1,382.3L-2.1,391.4C-2.1,394.2,0.2,396.5,2.9,396.5L83.3,396.5C86.1,396.5,88.3,394.2,88.4,391.4L88.4,382.4C88.4,379.5,86.1,377.2,83.3,377.2L83.3,377.2zM83.3,427.7L2.9,427.7C1.6,427.7,0.3,428.2,-0.6,429.2C-1.6,430.2,-2.1,431.4,-2.1,432.8L-2.1,441.9C-2.1,444.7,0.2,447,2.9,447L83.3,447C86.1,447,88.3,444.8,88.4,441.9L88.4,432.8C88.3,429.9,86.1,427.7,83.3,427.7zM48.2,452.9L2.9,452.9C1.6,452.9,0.3,453.4,-0.6,454.4C-1.5,455.4,-2.1,456.6,-2.1,458L-2.1,467.1C-2.1,469.9,0.2,472.2,2.9,472.2L48.1,472.2C50.9,472.2,53.1,469.9,53.1,467.2L53.1,458.1C53.2,455.1,51,452.9,48.2,452.9zM88.4,402.4L2.9,402.4C1.6,402.4,0.3,402.9,-0.6,403.9C-1.5,404.9,-2.1,406.1,-2.1,407.5L-2.1,416.6C-2.1,419.4,0.2,421.7,2.9,421.7L88.3,421.7C91.1,421.7,93.3,419.4,93.3,416.6L93.3,407.5C93.4,404.8,91.1,402.5,88.4,402.4z"/>
  <path class="st1" fill="#131e32" d="M181.9,397.6C179.4,395,176.5,393,173.2,391.6C169.9,390.2,166.4,389.5,162.8,389.5C159.3,389.4,155.9,390.2,152.7,391.7C150.6,392.7,148.7,394.1,147.1,395.8L147.1,394.2C147.1,393.4,146.8,392.6,146.3,392C145.8,391.4,145,391,144.1,391L133,391C132.2,391,131.4,391.3,130.9,392C130.3,392.6,130,393.4,130.1,394.2L130.1,469C130.1,469.8,130.4,470.6,130.9,471.2C131.5,471.8,132.2,472.1,133,472.1L144.4,472.1C145.2,472.1,145.9,471.8,146.5,471.2C147.1,470.7,147.5,469.9,147.4,469L147.4,443.4C149,445.2,151.1,446.5,153.4,447.3C156.4,448.4,159.5,449,162.7,449C166.3,449,169.9,448.3,173.2,446.9C176.5,445.5,179.5,443.5,182,440.9C184.6,438.2,186.6,435,188,431.5C189.6,427.6,190.3,423.4,190.2,419.2C190.3,415,189.5,410.8,188,406.8C186.5,403.5,184.5,400.3,181.9,397.6L181.9,397.6zM171.7,424.7C171.1,426.3,170.2,427.7,169,429C166.7,431.5,163.4,432.9,160,432.9C158.3,432.9,156.6,432.6,155,431.8C153.5,431.1,152.1,430.2,150.9,429C149.7,427.8,148.8,426.3,148.2,424.7C146.9,421.3,146.9,417.6,148.2,414.2C148.8,412.6,149.8,411.2,150.9,410C152.1,408.8,153.5,407.8,155,407.1C156.6,406.4,158.3,406,160,406C161.8,406,163.4,406.3,165.1,407.1C166.6,407.8,168,408.7,169.1,409.9C170.3,411.1,171.1,412.5,171.8,414.1C173,417.6,172.9,421.3,171.7,424.7zM251.3,391.1L240,391.1C239.2,391.1,238.4,391.4,237.9,392C237.3,392.6,237,393.4,237,394.3L237,395.7C235.6,394,233.8,392.7,231.9,391.8C228.8,390.3,225.4,389.6,222,389.6C214.7,389.6,207.8,392.5,202.6,397.6C199.9,400.3,197.8,403.5,196.4,407C194.8,410.9,194,415.1,194.1,419.4C194,423.6,194.8,427.8,196.4,431.8C197.9,435.3,199.9,438.5,202.6,441.2C207.7,446.4,214.7,449.3,221.9,449.3C225.3,449.4,228.7,448.6,231.8,447.1C233.7,446.1,235.6,444.8,237,443.2L237,444.7C237,445.5,237.3,446.3,237.9,446.9C238.5,447.4,239.2,447.8,240,447.8L251.3,447.8C252.1,447.8,252.9,447.5,253.4,446.9C254,446.3,254.3,445.5,254.3,444.7L254.3,394.4C254.3,393.6,254,392.8,253.5,392.2C252.9,391.5,252.1,391.1,251.3,391.1L251.3,391.1zM236,424.7C235.4,426.3,234.5,427.7,233.3,429C232.1,430.2,230.8,431.2,229.3,431.9C226.1,433.4,222.4,433.4,219.2,431.9C217.7,431.2,216.3,430.2,215.1,429C213.9,427.8,213,426.3,212.4,424.7C211.2,421.3,211.2,417.6,212.4,414.2C213,412.6,213.9,411.3,215.1,410C216.3,408.8,217.6,407.8,219.2,407.1C222.4,405.6,226.1,405.6,229.2,407.1C230.7,407.8,232.1,408.7,233.2,409.9C234.3,411.1,235.2,412.5,235.9,414.1C237.3,417.6,237.3,421.3,236,424.7zM363.9,417.9C362.3,416.5,360.4,415.3,358.4,414.5C356.3,413.6,354,413,351.8,412.5L343.2,410.8C341,410.4,339.4,409.8,338.6,409.1C337.9,408.6,337.4,407.8,337.4,406.9C337.4,406,337.9,405.2,339,404.5C340.5,403.7,342.1,403.3,343.8,403.4C346,403.4,348.2,403.9,350.2,404.7C352.2,405.6,354.1,406.5,355.9,407.7C358.4,409.3,360.6,409,362.1,407.2L366.2,402.5C367,401.7,367.4,400.7,367.5,399.6C367.4,398.4,366.8,397.4,365.9,396.6C364.2,395.1,361.4,393.5,357.7,391.9C354,390.3,349.3,389.5,343.8,389.5C340.4,389.4,337.1,389.9,333.9,390.9C331.2,391.8,328.6,393.1,326.3,394.8C324.2,396.4,322.6,398.4,321.4,400.8C320.3,403.1,319.7,405.6,319.7,408.1C319.7,412.8,321.1,416.6,323.9,419.4C326.7,422.2,330.4,424.1,335,425L344,427C345.9,427.3,347.9,427.9,349.7,428.8C350.7,429.2,351.3,430.2,351.3,431.3C351.3,432.3,350.8,433.2,349.7,434C348.6,434.8,346.8,435.3,344.4,435.3C342,435.3,339.5,434.8,337.3,433.7C335.2,432.7,333.3,431.4,331.5,429.9C330.7,429.3,329.9,428.8,328.9,428.4C327.9,428.1,326.6,428.4,325.3,429.5L320.4,433.2C319,434.2,318.3,435.9,318.7,437.5C319,439.2,320.3,440.8,322.8,442.7C329,446.9,336.4,449.1,343.9,448.9C347.4,448.9,350.9,448.5,354.2,447.5C357.1,446.6,359.8,445.3,362.2,443.5C364.4,441.9,366.2,439.8,367.4,437.3C368.6,434.9,369.2,432.3,369.2,429.6C369.3,427.2,368.8,424.8,367.8,422.6C366.8,421,365.5,419.3,363.9,417.9L363.9,417.9zM413.3,431.6C412.8,430.7,411.9,430.1,410.8,429.9C409.8,429.9,408.7,430.2,407.9,430.8C406.5,431.7,404.9,432.2,403.3,432.3C402.8,432.3,402.2,432.2,401.7,432.1C401.1,432,400.6,431.7,400.2,431.3C399.7,430.8,399.3,430.2,399,429.6C398.6,428.6,398.4,427.6,398.5,426.6L398.5,406.1L413.1,406.1C414,406.1,414.8,405.7,415.4,405.1C416,404.5,416.4,403.8,416.4,402.9L416.4,394.2C416.4,393.3,416.1,392.5,415.4,392C414.8,391.4,414,391.1,413.2,391.1L398.5,391.1L398.5,377.1C398.5,376.3,398.2,375.4,397.6,374.9C397,374.4,396.3,374.1,395.5,374L384.1,374C383.3,374,382.5,374.3,381.9,374.9C381.3,375.5,380.9,376.3,380.9,377.1L380.9,391.1L374.4,391.1C373.6,391.1,372.8,391.4,372.2,392.1C371.7,392.7,371.4,393.5,371.4,394.3L371.4,403C371.4,403.8,371.7,404.6,372.2,405.2C372.7,405.9,373.5,406.2,374.4,406.2L380.9,406.2L380.9,430.6C380.8,433.5,381.4,436.4,382.6,439C383.7,441.2,385.1,443.1,387,444.7C388.8,446.2,390.9,447.3,393.2,447.9C395.5,448.6,397.9,449,400.3,449C403.4,449,406.6,448.5,409.6,447.5C412.4,446.6,414.9,445,416.9,442.9C418.2,441.6,418.3,439.5,417.3,438L413.3,431.6zM475.1,391.1L463.8,391.1C463,391.1,462.3,391.4,461.7,392C461.1,392.6,460.8,393.4,460.8,394.3L460.8,395.7C459.4,394,457.7,392.7,455.7,391.8C452.6,390.3,449.2,389.6,445.8,389.6C438.5,389.6,431.6,392.5,426.4,397.6C423.7,400.3,421.6,403.5,420.2,407C418.6,410.9,417.8,415.1,417.9,419.3C417.8,423.5,418.6,427.7,420.2,431.7C421.6,435.2,423.8,438.4,426.4,441.1C431.5,446.3,438.4,449.2,445.7,449.2C449.1,449.3,452.5,448.5,455.6,447.1C457.6,446.1,459.4,444.8,460.8,443.2L460.8,444.7C460.8,445.5,461.1,446.3,461.7,446.8C462.3,447.4,463,447.7,463.8,447.7L475.1,447.7C476.8,447.7,478.1,446.4,478.1,444.7L478.1,394.4C478.1,393.6,477.8,392.8,477.3,392.2C476.8,391.5,476,391.1,475.1,391.1L475.1,391.1zM459.9,424.8C459.3,426.4,458.4,427.8,457.2,429.1C456,430.3,454.7,431.3,453.2,432C451.6,432.7,449.9,433.1,448.1,433.1C446.3,433.1,444.7,432.7,443.1,432C441.6,431.3,440.2,430.3,439,429.1C437.8,427.9,436.9,426.4,436.4,424.8C435.2,421.4,435.2,417.7,436.4,414.3C437,412.7,437.9,411.3,439,410.1C440.2,408.9,441.6,407.9,443.1,407.2C444.7,406.5,446.4,406.1,448.1,406.1C449.8,406.1,451.5,406.4,453.2,407.2C454.7,407.9,456,408.8,457.2,410C458.4,411.2,459.3,412.6,459.9,414.2C461.2,417.5,461.2,421.4,459.9,424.8zM537.1,430.9L530.6,425.9C529.4,424.9,528.2,424.6,527.2,425C526.3,425.4,525.5,426,524.8,426.7C523.4,428.4,521.7,429.9,519.9,431.2C517.9,432.3,515.8,432.9,513.6,432.7C511,432.7,508.6,432,506.5,430.5C504.4,429,502.8,427,502,424.5C501.4,422.8,501.1,421.1,501.1,419.4C501.1,417.6,501.4,415.9,502,414.1C502.6,412.5,503.4,411.1,504.6,409.9C505.8,408.7,507.1,407.7,508.6,407.1C510.2,406.4,511.9,406,513.7,406C515.9,405.9,518.1,406.5,520,407.6C521.9,408.8,523.5,410.3,524.9,412.1C525.5,412.8,526.3,413.4,527.2,413.8C528.2,414.2,529.4,413.9,530.6,412.9L537.1,408C537.9,407.5,538.5,406.7,538.8,405.8C539.2,404.8,539.1,403.7,538.5,402.8C536,398.9,532.6,395.7,528.5,393.4C524.2,391,519.1,389.7,513.4,389.7C509.4,389.7,505.4,390.5,501.6,392C498,393.5,494.8,395.6,492.1,398.3C489.4,401,487.2,404.2,485.7,407.8C482.6,415.3,482.6,423.7,485.7,431.2C487.2,434.7,489.3,438,492.1,440.6C497.8,446.2,505.4,449.2,513.4,449.2C519.1,449.2,524.2,447.9,528.5,445.5C532.6,443.2,536.1,440,538.6,436C539.1,435.1,539.2,434,538.9,433.1C538.5,432.3,537.9,431.5,537.1,430.9L537.1,430.9zM597.3,442.6L579.4,416.4L594.7,396.2C595.4,395.3,595.7,394,595.3,392.9C595,392.1,594.3,391.3,592.4,391.3L580.3,391.3C579.6,391.3,578.9,391.5,578.3,391.8C577.5,392.2,576.9,392.8,576.5,393.5L564.3,410.6L561.4,410.6L561.4,370.2C561.4,369.4,561.1,368.6,560.5,368C559.9,367.4,559.2,367.1,558.4,367.1L547.1,367.1C546.3,367.1,545.5,367.4,544.9,368C544.3,368.6,544,369.3,544,370.2L544,444.7C544,445.6,544.3,446.3,544.9,446.9C545.5,447.5,546.3,447.8,547.1,447.8L558.4,447.8C559.2,447.8,560,447.5,560.5,446.9C561.1,446.3,561.4,445.5,561.4,444.7L561.4,425L564.6,425L577.9,445.4C578.7,446.9,580.2,447.8,581.8,447.8L594.5,447.8C596.4,447.8,597.2,446.9,597.6,446.1C598.1,444.8,598,443.5,597.3,442.6L597.3,442.6zM315.5,391.2L302.8,391.2C301.8,391.2,300.9,391.5,300.2,392.2C299.6,392.8,299.2,393.5,299,394.3L289.6,429.1L287.3,429.1L277.3,394.3C277.1,393.6,276.8,392.9,276.3,392.2C275.7,391.5,274.9,391.1,274,391.1L261.1,391.1C259.4,391.1,258.4,391.6,257.9,392.8C257.6,393.8,257.6,394.9,257.9,395.9L273.9,444.9C274.2,445.6,274.5,446.4,275.1,446.9C275.7,447.5,276.6,447.8,277.5,447.8L284.3,447.8L283.7,449.4L282.2,453.9C281.7,455.3,280.9,456.5,279.7,457.4C278.6,458.2,277.3,458.7,275.9,458.6C274.7,458.6,273.6,458.3,272.5,457.9C271.4,457.4,270.4,456.8,269.5,456.1C268.7,455.5,267.7,455.2,266.6,455.2L266.5,455.2C265.3,455.3,264.2,455.9,263.6,457L259.6,462.9C258,465.5,258.9,467.1,259.9,468C262.1,470,264.6,471.5,267.4,472.4C270.5,473.5,273.7,474,276.9,474C282.7,474,287.5,472.4,291.2,469.3C295,465.9,297.9,461.5,299.3,456.5L317.9,395.9C318.3,394.8,318.4,393.7,318,392.7C317.9,392,317.2,391.1,315.5,391.2L315.5,391.2z"/>
</svg>