<svg width="147" height="147" viewBox="0 0 147 147" fill="none" xmlns="http://www.w3.org/2000/svg">
<path d="M73.5 0.625C33.4188 0.625 0.625 33.4188 0.625 73.5C0.625 113.581 33.4188 146.375 73.5 146.375C113.581 146.375 146.375 113.581 146.375 73.5C146.375 33.4188 113.581 0.625 73.5 0.625ZM73.5 131.8C41.3621 131.8 15.2 105.638 15.2 73.5C15.2 41.3621 41.3621 15.2 73.5 15.2C105.638 15.2 131.8 41.3621 131.8 73.5C131.8 105.638 105.638 131.8 73.5 131.8ZM106.95 41.2892L58.925 89.3139L40.0504 70.5121L29.775 80.7875L58.925 109.938L117.225 51.6375L106.95 41.2892Z" fill="#0FAC16"/>
</svg>
