<?xml version="1.0" encoding="UTF-8" standalone="no"?>
<!-- Created with Pixodesk SVG (https://pixodesk.com) -->
<svg xmlns="http://www.w3.org/2000/svg" viewBox="0 0 350 350" text-rendering="geometricPrecision" shape-rendering="geometricPrecision" fill="url(#13362)" stroke="#aaaaaa" stroke-width="3">
  <defs>
    <radialGradient id="13362" spreadMethod="pad" cx="175.8188" cy="184.9676880613722" fx="175.8188" fy="184.9676880613722" r="94.65187715601905" gradientUnits="userSpaceOnUse">
      <stop offset="0%" stop-color="rgb(255,255,255)"/>
      <stop offset="100%" stop-color="rgba(158,49,70,0.3371)"/>
    </radialGradient>
    <linearGradient id="13985" x1="-1.4492753623188719" y1="98.83349759158523" x2="307.1588522553633" y2="98.83349759158523" gradientUnits="userSpaceOnUse">
      <stop offset="0%" stop-color="rgba(246,235,237,0.4157)"/>
      <stop offset="83.89999999999999%" stop-color="rgb(255,255,255)"/>
    </linearGradient>
    <linearGradient id="14007" x1="146.37681159420293" y1="70.53137681159421" x2="150.72463768115946" y2="106.76326086956524" gradientUnits="userSpaceOnUse">
      <stop offset="0%" stop-color="rgb(255,255,255)"/>
      <stop offset="100%" stop-color="rgb(158,49,70)"/>
    </linearGradient>
    <radialGradient id="13362" spreadMethod="pad" cx="175.8188" cy="184.9676880613722" fx="175.8188" fy="184.9676880613722" r="94.65187715601905" gradientUnits="userSpaceOnUse">
      <stop offset="0%" stop-color="rgb(255,255,255)"/>
      <stop offset="100%" stop-color="rgba(158,49,70,0.3371)"/>
    </radialGradient>
  </defs>
  <path fill="#fffdfe" stroke="none" transform="translate(174.8533, 175.9511)translate(-166.4402, -98.596)" d="M252.8804,-31.0688C274.0978,-31.0688,294.4461,-22.6403,309.449,-7.6374C324.4519,7.3655,332.8804,27.7138,332.8804,48.9312C332.8804,48.9274,332.8804,112.2506,332.8804,144.4565C332.8804,188.6393,297.0632,224.4565,252.8804,224.4565C252.8838,224.4565,114.4551,224.4565,80,224.4565C35.8172,224.4565,0,188.6393,0,144.4565C0,144.4603,0,81.137,0,48.9312C0,4.7484,35.8172,-31.0688,80,-31.0688C79.9966,-31.0688,218.4254,-31.0688,252.8804,-31.0688z" data-px-corners="[0,0]=80|[0,1]=80|[0,2]=80|[0,3]=80" data-px-src-d="M332.8804,-31.0688L332.8804,224.4565L0,224.4565L0,-31.0688L332.8804,-31.0688z" style="pointer-events:none"/>
  <g transform="translate(175.3185, 187.0581)translate(-203.5794, -216.6378)" style="pointer-events:none">
    <path fill="url(#13985)" stroke="url(#14007)" stroke-width="3" transform="translate(201.8116, 236.2319)translate(-151.087, -101.4493)" d="M306.5217,44.2029C309.2832,44.2029,302.1739,67.7615,302.1739,69.1121C302.1739,69.1066,300.7246,118.2583,300.7246,121.0145C300.7246,123.1714,302.0483,142.1307,297.8261,142.7536C293.6039,143.3766,286.1452,142.5759,283.3333,140.5797C196.6875,79.0674,109.8717,89.2853,21.9843,151.2294C19.1338,153.2384,14.9969,153.8524,10.7613,153.2337C6.5257,152.6151,3.6232,150.7097,3.6232,148.5478C3.6232,148.5478,-1.4493,94.6817,-1.4493,93.4783C-1.4493,92.1277,7.3835,73.1884,10.1449,73.1884C10.1278,73.1884,305.8015,44.2029,306.5217,44.2029z" style="pointer-events:none"/>
    <text fill="#9e3146" stroke="#9e3146" stroke-width="3" text-anchor="middle" letter-spacing="3" font-family="Trebuchet MS" font-style="italic" font-size="80px" xml:space="preserve" transform="translate(200.7246, 220.3913)" data-gn-el-type="text" style="white-space:pre"><tspan>Biddius</tspan></text>
  </g>
</svg>