<svg width="43" height="30" viewBox="0 0 43 63" fill="none" xmlns="http://www.w3.org/2000/svg">
<path d="M11.8328 11.7333H31.4995M11.8328 11.7333C6.40205 11.7333 1.99951 16.1358 1.99951 21.5666V41.2333C1.99951 46.6641 6.40205 51.0666 11.8328 51.0666M11.8328 11.7333L11.8328 1.89996H31.4995L31.4995 11.7333M31.4995 11.7333C36.9303 11.7333 41.3328 16.1358 41.3328 21.5666V41.2333C41.3328 46.6641 36.9303 51.0666 31.4995 51.0666M31.4995 51.0666H11.8328M31.4995 51.0666L31.4995 60.9H11.8328L11.8328 51.0666M16.0464 24.3758V39.8282M21.6653 31.3996V39.8282M27.2845 28.5901V39.8282" stroke="#FFFCFC" stroke-width="2.80952" stroke-linecap="round" stroke-linejoin="round"/>
</svg>
