<svg width="18" height="20" viewBox="0 0 18 20" fill="none" xmlns="http://www.w3.org/2000/svg">
<path d="M10.2 18.4C10.2 18.8159 10.4153 19.2022 10.7691 19.4208C11.1229 19.6395 11.5646 19.6593 11.9366 19.4733L16.7366 17.0733C17.1432 16.8701 17.4 16.4546 17.4 16V9.08331C17.4 8.66741 17.1846 8.28117 16.8309 8.06253C16.4771 7.84388 16.0353 7.824 15.6633 8.00999L10.8633 10.41C10.4568 10.6133 10.2 11.0288 10.2 11.4833V18.4Z" fill="#9F3247"/>
<path d="M15.2533 5.5317C15.6599 5.32843 15.9167 4.91291 15.9167 4.45838C15.9167 4.00386 15.6599 3.58834 15.2533 3.38507L9.53663 0.526712C9.1988 0.357795 8.80115 0.357795 8.46332 0.526712L2.7466 3.38507C2.34006 3.58834 2.08326 4.00386 2.08326 4.45838C2.08326 4.91291 2.34006 5.32843 2.7466 5.5317L8.46332 8.39006C8.80115 8.55897 9.1988 8.55897 9.53663 8.39006L15.2533 5.5317Z" fill="#9F3247"/>
<path d="M2.33663 8.00999C1.96465 7.824 1.52288 7.84388 1.1691 8.06253C0.815318 8.28117 0.599976 8.66741 0.599976 9.08331V16C0.599976 16.4546 0.856778 16.8701 1.26332 17.0733L6.06332 19.4733C6.43531 19.6593 6.87707 19.6395 7.23085 19.4208C7.58463 19.2022 7.79998 18.8159 7.79998 18.4V11.4833C7.79998 11.0288 7.54317 10.6133 7.13663 10.41L2.33663 8.00999Z" fill="#9F3247"/>
</svg>
