<svg width="159" height="159" viewBox="0 0 159 159" fill="none" xmlns="http://www.w3.org/2000/svg">
<path d="M79.5 0C63.7764 0 48.4059 4.66259 35.3322 13.3982C22.2585 22.1337 12.0688 34.5499 6.05161 49.0767C0.0344462 63.6034 -1.53992 79.5882 1.52761 95.0097C4.59513 110.431 12.1668 124.597 23.285 135.715C34.4033 146.833 48.5689 154.405 63.9904 157.472C79.4118 160.54 95.3966 158.966 109.923 152.948C124.45 146.931 136.866 136.742 145.602 123.668C154.337 110.594 159 95.2236 159 79.5C159 58.4153 150.624 38.1942 135.715 23.285C120.806 8.37587 100.585 0 79.5 0ZM15.9 79.5C15.9313 65.3838 20.658 51.6791 29.3355 40.545L73.8953 85.1047L118.455 129.664C109.059 136.945 97.8102 141.447 85.9852 142.659C74.1602 143.871 62.2322 141.745 51.5543 136.522C40.8763 131.299 31.8758 123.188 25.5738 113.109C19.2718 103.03 15.9205 91.3869 15.9 79.5ZM129.665 118.455L40.545 29.3355C52.7894 20.0293 67.9911 15.4752 83.3353 16.5164C98.6795 17.5576 113.127 24.1236 124.002 34.9985C134.876 45.8734 141.442 60.3206 142.484 75.6648C143.525 91.0089 138.971 106.211 129.665 118.455Z" fill="#FF0000"/>
</svg>
