<svg width="38" height="38" viewBox="0 0 38 38" fill="none" xmlns="http://www.w3.org/2000/svg">
<path d="M15.8334 26.125L20.5834 27.7084C20.5834 27.7084 32.4584 25.3334 34.0417 25.3334C35.6251 25.3334 35.6251 26.9167 34.0417 28.5C32.4584 30.0834 26.9167 34.8334 22.1667 34.8334C17.4167 34.8334 14.2501 32.4584 11.0834 32.4584H3.16675" stroke="black" stroke-opacity="0.81" stroke-width="2" stroke-linecap="round" stroke-linejoin="round"/>
<path d="M3.16675 22.9584C4.75008 21.375 7.91675 19 11.0834 19C14.2501 19 21.7709 22.1667 22.9584 23.75C24.1459 25.3334 20.5834 27.7084 20.5834 27.7084M12.6667 14.25V7.91671C12.6667 7.49678 12.8336 7.09405 13.1305 6.79712C13.4274 6.50019 13.8302 6.33337 14.2501 6.33337H33.2501C33.67 6.33337 34.0727 6.50019 34.3697 6.79712C34.6666 7.09405 34.8334 7.49678 34.8334 7.91671V20.5834" stroke="black" stroke-opacity="0.81" stroke-width="2" stroke-linecap="round" stroke-linejoin="round"/>
<path d="M19.7917 6.33337H27.7084V13.4584H19.7917V6.33337Z" stroke="black" stroke-opacity="0.81" stroke-width="2" stroke-linecap="round" stroke-linejoin="round"/>
</svg>
