<svg width="20" height="18" viewBox="0 0 20 18" fill="none" xmlns="http://www.w3.org/2000/svg">
<path fill-rule="evenodd" clip-rule="evenodd" d="M2.80002 2.99998C1.47454 2.99998 0.400024 4.07449 0.400024 5.39998V15C0.400024 16.3255 1.47454 17.4 2.80002 17.4H17.2C18.5255 17.4 19.6 16.3255 19.6 15V5.39998C19.6 4.07449 18.5255 2.99998 17.2 2.99998H15.2971C14.9788 2.99998 14.6736 2.87355 14.4486 2.6485L13.103 1.30292C12.6529 0.852832 12.0424 0.599976 11.4059 0.599976H8.59414C7.95762 0.599976 7.34717 0.852831 6.89708 1.30292L5.5515 2.6485C5.32645 2.87355 5.02123 2.99998 4.70297 2.99998H2.80002ZM10 13.8C11.9883 13.8 13.6 12.1882 13.6 10.2C13.6 8.21175 11.9883 6.59998 10 6.59998C8.0118 6.59998 6.40002 8.21175 6.40002 10.2C6.40002 12.1882 8.0118 13.8 10 13.8Z" fill="#9F3247"/>
</svg>
