<svg width="63" height="30" viewBox="0 0 63 57" fill="none" xmlns="http://www.w3.org/2000/svg">
<path d="M8.38856 12.0112H11.6663C13.405 12.0112 15.0724 11.3206 16.3018 10.0912C17.5312 8.86177 18.2219 7.19434 18.2219 5.45569C18.2219 4.58637 18.5672 3.75266 19.1819 3.13796C19.7966 2.52325 20.6304 2.17792 21.4997 2.17792H41.1663C42.0357 2.17792 42.8694 2.52325 43.4841 3.13796C44.0988 3.75266 44.4441 4.58637 44.4441 5.45569C44.4441 7.19434 45.1348 8.86177 46.3642 10.0912C47.5936 11.3206 49.261 12.0112 50.9997 12.0112H54.2775C56.0161 12.0112 57.6835 12.7019 58.9129 13.9313C60.1423 15.1607 60.833 16.8282 60.833 18.5668V48.0668C60.833 49.8054 60.1423 51.4729 58.9129 52.7023C57.6835 53.9317 56.0161 54.6224 54.2775 54.6224H8.38856C6.64992 54.6224 4.98249 53.9317 3.75309 52.7023C2.52368 51.4729 1.83301 49.8054 1.83301 48.0668V18.5668C1.83301 16.8282 2.52368 15.1607 3.75309 13.9313C4.98249 12.7019 6.64992 12.0112 8.38856 12.0112Z" stroke="#FFFCFC" stroke-width="2.80952" stroke-linecap="round" stroke-linejoin="round"/>
<path d="M31.333 41.5113C36.7638 41.5113 41.1663 37.1087 41.1663 31.6779C41.1663 26.2471 36.7638 21.8446 31.333 21.8446C25.9022 21.8446 21.4997 26.2471 21.4997 31.6779C21.4997 37.1087 25.9022 41.5113 31.333 41.5113Z" stroke="#FFFCFC" stroke-width="2.80952" stroke-linecap="round" stroke-linejoin="round"/>
</svg>
