<svg width="30" height="30" viewBox="0 0 30 30" fill="none" xmlns="http://www.w3.org/2000/svg">
<path d="M0.999023 20.2461V25.4953C0.999023 27.428 2.56579 28.9948 4.4985 28.9948H6.24824C8.18095 28.9948 9.74772 27.428 9.74772 25.4953V20.2461C9.74772 18.3134 8.18095 16.7466 6.24824 16.7466H4.4985C2.56579 16.7466 0.999023 18.3134 0.999023 20.2461ZM0.999023 20.2461V14.9969C0.999023 11.2845 2.4738 7.72404 5.09892 5.09892C7.72403 2.4738 11.2845 0.999023 14.9969 0.999023C18.7094 0.999023 22.2698 2.4738 24.895 5.09892C27.5201 7.72404 28.9948 11.2845 28.9948 14.9969L28.995 20.2461M28.995 20.2461C28.995 18.3134 27.4283 16.7466 25.4956 16.7466H23.7458C21.8131 16.7466 20.2463 18.3134 20.2463 20.2461V25.4953C20.2463 27.428 21.8131 28.9948 23.7458 28.9948H25.4956C27.4283 28.9948 28.995 27.428 28.995 25.4953V20.2461Z" stroke="#9F3247" stroke-width="1.49978" stroke-linecap="round" stroke-linejoin="round"/>
</svg>
