<svg width="34" height="30" viewBox="0 0 34 30" fill="none" xmlns="http://www.w3.org/2000/svg">
<path d="M4.66366 6.12904H6.39637C7.31546 6.12904 8.1969 5.76393 8.8468 5.11404C9.49669 4.46415 9.86179 3.58271 9.86179 2.66362C9.86179 2.20408 10.0443 1.76335 10.3693 1.43841C10.6942 1.11346 11.135 0.930908 11.5945 0.930908H21.9908C22.4503 0.930908 22.891 1.11346 23.216 1.43841C23.5409 1.76335 23.7235 2.20408 23.7235 2.66362C23.7235 3.58271 24.0886 4.46415 24.7385 5.11404C25.3884 5.76393 26.2698 6.12904 27.1889 6.12904H28.9216C29.8407 6.12904 30.7221 6.49414 31.372 7.14404C32.0219 7.79393 32.387 8.67537 32.387 9.59446V25.1889C32.387 26.1079 32.0219 26.9894 31.372 27.6393C30.7221 28.2892 29.8407 28.6543 28.9216 28.6543H4.66366C3.74458 28.6543 2.86313 28.2892 2.21324 27.6393C1.56335 26.9894 1.19824 26.1079 1.19824 25.1889V9.59446C1.19824 8.67537 1.56335 7.79393 2.21324 7.14404C2.86313 6.49414 3.74458 6.12904 4.66366 6.12904Z" stroke="#9F3247" stroke-width="1.48518" stroke-linecap="round" stroke-linejoin="round"/>
<path d="M16.7926 21.7234C19.6635 21.7234 21.9907 19.3961 21.9907 16.5253C21.9907 13.6544 19.6635 11.3271 16.7926 11.3271C13.9218 11.3271 11.5945 13.6544 11.5945 16.5253C11.5945 19.3961 13.9218 21.7234 16.7926 21.7234Z" stroke="#9F3247" stroke-width="1.48518" stroke-linecap="round" stroke-linejoin="round"/>
</svg>
